<svg width="24" height="24" viewBox="0 0 24 24" fill="none" xmlns="http://www.w3.org/2000/svg">
<path d="M11.9999 4C7.58906 4 4 7.58877 4 12.0001C4 16.4115 7.58906 20.0003 11.9999 20.0003C16.4115 20.0003 20 16.4115 20 12.0001C20 7.58877 16.4115 4 11.9999 4ZM11.9999 18.9337C8.17684 18.9337 5.06663 15.8235 5.06663 12.0001C5.06663 8.17684 8.17712 5.06663 11.9999 5.06663C15.8235 5.06663 18.9334 8.17684 18.9334 12.0001C18.9334 15.8235 15.8237 18.9337 11.9999 18.9337Z" fill="#4B84F4"/>
<path d="M15.9615 11.4186H12.5329V6.88502C12.5329 6.59041 12.294 6.35156 11.9997 6.35156C11.7056 6.35156 11.4668 6.5907 11.4668 6.88502V12.4849H15.9615C16.2558 12.4849 16.4947 12.2463 16.4944 11.9517C16.4944 11.6574 16.2553 11.4186 15.9615 11.4186Z" fill="#4B84F4"/>
</svg>
