<svg width="16" height="16" viewBox="0 0 16 16" fill="none" xmlns="http://www.w3.org/2000/svg">
<path d="M9.72168 8.39961L14.2083 3.91278C14.3317 3.78927 14.3998 3.62449 14.4 3.44878C14.4 3.27298 14.3319 3.108 14.2083 2.98468L13.8151 2.59161C13.6915 2.4678 13.5268 2.4 13.3509 2.4C13.1752 2.4 13.0105 2.4678 12.8869 2.59161L8.40022 7.07815L3.91339 2.59161C3.78998 2.4678 3.6251 2.4 3.44929 2.4C3.27368 2.4 3.1088 2.4678 2.98539 2.59161L2.59202 2.98468C2.33602 3.24068 2.33602 3.65707 2.59202 3.91278L7.07876 8.39961L2.59202 12.8862C2.46851 13.0099 2.40051 13.1747 2.40051 13.3504C2.40051 13.5261 2.46851 13.6909 2.59202 13.8145L2.98529 14.2076C3.10871 14.3313 3.27368 14.3992 3.4492 14.3992C3.625 14.3992 3.78988 14.3313 3.91329 14.2076L8.40012 9.72097L12.8868 14.2076C13.0104 14.3313 13.1751 14.3992 13.3508 14.3992H13.351C13.5267 14.3992 13.6914 14.3313 13.815 14.2076L14.2082 13.8145C14.3316 13.691 14.3997 13.5261 14.3997 13.3504C14.3997 13.1747 14.3316 13.0099 14.2082 12.8863L9.72168 8.39961Z" fill="#E26C6C"/>
</svg>
