<svg width="14" height="14" viewBox="0 0 14 14" fill="none" xmlns="http://www.w3.org/2000/svg">
<circle cx="7" cy="7" r="7" fill="#E03230"/>
<path d="M7.54969 7.00243L9.88597 4.66417C10.038 4.51208 10.038 4.26616 9.88597 4.11407C9.734 3.96198 9.48828 3.96198 9.33631 4.11407L6.99996 6.45233L4.66368 4.11407C4.51164 3.96198 4.266 3.96198 4.11403 4.11407C3.96199 4.26616 3.96199 4.51208 4.11403 4.66417L6.45031 7.00243L4.11403 9.34069C3.96199 9.49279 3.96199 9.7387 4.11403 9.8908C4.18977 9.96667 4.28935 10.0048 4.38886 10.0048C4.48837 10.0048 4.58788 9.96667 4.66368 9.8908L6.99996 7.55254L9.33631 9.8908C9.41212 9.96667 9.51163 10.0048 9.61114 10.0048C9.71065 10.0048 9.81016 9.96667 9.88597 9.8908C10.038 9.7387 10.038 9.49279 9.88597 9.34069L7.54969 7.00243Z" fill="white"/>
</svg>
