<svg width="18" height="18" viewBox="0 0 18 18" fill="none" xmlns="http://www.w3.org/2000/svg">
<path d="M15.3636 2.63572C14.1049 1.37714 12.5013 0.520062 10.7555 0.172869C9.00967 -0.174323 7.20012 0.00396043 5.55564 0.685176C3.91116 1.36639 2.5056 2.51994 1.51671 3.99997C0.527818 5.47999 0 7.22001 0 9C0 10.78 0.527818 12.52 1.51671 14C2.5056 15.4801 3.91116 16.6336 5.55564 17.3148C7.20012 17.996 9.00967 18.1743 10.7555 17.8271C12.5013 17.4799 14.1049 16.6229 15.3636 15.3643C16.1995 14.5285 16.8625 13.5364 17.3148 12.4444C17.7672 11.3524 18 10.182 18 9C18 7.81803 17.7672 6.64763 17.3148 5.55564C16.8625 4.46365 16.1995 3.47146 15.3636 2.63572ZM12.2136 11.2757C12.2779 11.3358 12.3291 11.4085 12.3641 11.4892C12.3991 11.57 12.4171 11.657 12.4171 11.745C12.4171 11.833 12.3991 11.92 12.3641 12.0008C12.3291 12.0815 12.2779 12.1542 12.2136 12.2143C12.1536 12.2739 12.0823 12.321 12.004 12.353C11.9257 12.385 11.8418 12.4012 11.7572 12.4007C11.5886 12.4 11.4269 12.333 11.3072 12.2143L8.99935 9.90643L6.72364 12.2143C6.6039 12.333 6.44228 12.4 6.27364 12.4007C6.18903 12.4012 6.10516 12.385 6.02684 12.353C5.94852 12.321 5.87728 12.2739 5.81721 12.2143C5.69747 12.0938 5.63027 11.9309 5.63027 11.7611C5.63027 11.5912 5.69747 11.4283 5.81721 11.3079L8.09292 9L5.81721 6.72429C5.71189 6.60131 5.65686 6.44312 5.66311 6.28132C5.66936 6.11953 5.73643 5.96606 5.85092 5.85157C5.96541 5.73708 6.11888 5.67001 6.28067 5.66376C6.44247 5.65751 6.60066 5.71254 6.72364 5.81786L8.99935 8.09357L11.2751 5.81786C11.3346 5.75623 11.4057 5.70693 11.4842 5.67277C11.5628 5.63861 11.6473 5.62026 11.733 5.61877C11.8186 5.61727 11.9038 5.63267 11.9835 5.66407C12.0632 5.69547 12.1359 5.74227 12.1976 5.80179C12.2592 5.8613 12.3085 5.93238 12.3427 6.01095C12.3768 6.08952 12.3952 6.17405 12.3967 6.25971C12.3981 6.34537 12.3828 6.43049 12.3514 6.5102C12.3199 6.58991 12.2732 6.66266 12.2136 6.72429L9.90578 9L12.2136 11.2757Z" fill="#2E2E2E" fill-opacity="0.4"/>
</svg>
