<svg width="16" height="16" viewBox="0 0 16 16" fill="none" xmlns="http://www.w3.org/2000/svg">
<path d="M8.33322 2C4.84134 2 2 4.84111 2 8.33345C2 11.8258 4.84134 14.6669 8.33322 14.6669C11.8258 14.6669 14.6667 11.8258 14.6667 8.33345C14.6667 4.84111 11.8258 2 8.33322 2ZM8.33322 13.8225C5.30666 13.8225 2.84441 11.3602 2.84441 8.33345C2.84441 5.30666 5.30689 2.84441 8.33322 2.84441C11.3602 2.84441 13.8223 5.30666 13.8223 8.33345C13.8223 11.3602 11.3605 13.8225 8.33322 13.8225Z" fill="#2E2E2E" fill-opacity="0.6"/>
<path d="M11.4698 7.87397H8.75543V4.28493C8.75543 4.0517 8.56634 3.86261 8.33333 3.86261C8.10056 3.86261 7.91147 4.05193 7.91147 4.28493V8.71816H11.4698C11.7028 8.71816 11.8919 8.5293 11.8917 8.29607C11.8917 8.06306 11.7023 7.87397 11.4698 7.87397Z" fill="#2E2E2E" fill-opacity="0.6"/>
</svg>
