<svg width="16" height="16" viewBox="0 0 16 16" fill="none" xmlns="http://www.w3.org/2000/svg">
<g clip-path="url(#clip0_3097_1487)">
<path d="M9.46586 8.01311L15.6959 1.77774C16.1014 1.37216 16.1014 0.716381 15.6959 0.310796C15.2907 -0.0947892 14.6355 -0.0947892 14.2302 0.310796L7.99992 6.54617L1.76983 0.310796C1.36439 -0.0947892 0.709337 -0.0947892 0.304083 0.310796C-0.101361 0.716381 -0.101361 1.37216 0.304083 1.77774L6.53417 8.01311L0.304083 14.2485C-0.101361 14.6541 -0.101361 15.3098 0.304083 15.7154C0.506045 15.9177 0.771596 16.0194 1.03696 16.0194C1.30232 16.0194 1.56768 15.9177 1.76983 15.7154L7.99992 9.48006L14.2302 15.7154C14.4324 15.9177 14.6977 16.0194 14.9631 16.0194C15.2284 16.0194 15.4938 15.9177 15.6959 15.7154C16.1014 15.3098 16.1014 14.6541 15.6959 14.2485L9.46586 8.01311Z" fill="#2E2E2E"/>
</g>
<defs>
<clipPath id="clip0_3097_1487">
<rect width="16" height="16" fill="white"/>
</clipPath>
</defs>
</svg>
