<svg width="24" height="24" viewBox="0 0 24 24" fill="none" xmlns="http://www.w3.org/2000/svg">
<path d="M21.8566 11.5681C20.582 9.89814 19.0511 8.44036 17.3207 7.24893L20.2802 4.28946C20.5781 4.00171 20.5864 3.52693 20.2986 3.22898C20.0109 2.93103 19.5361 2.92277 19.2381 3.21052C19.2319 3.21654 19.2257 3.2227 19.2197 3.22898L15.9865 6.45919C14.6102 5.70176 13.0706 5.28995 11.5 5.25919C5.80005 5.25919 1.33085 11.3101 1.14334 11.5681C0.952221 11.831 0.952221 12.1871 1.14334 12.4501C2.418 14.1201 3.94891 15.5778 5.67929 16.7693L2.71982 19.7288C2.42187 20.0165 2.41361 20.4913 2.70136 20.7892C2.98911 21.0872 3.46389 21.0954 3.76184 20.8077C3.76808 20.8017 3.77423 20.7955 3.78029 20.7892L7.0135 17.559C8.38972 18.3165 9.92937 18.7283 11.5 18.759C17.1999 18.759 21.6691 12.7081 21.8566 12.4501C22.0478 12.1872 22.0478 11.8311 21.8566 11.5681ZM6.76978 15.6811C5.24195 14.6635 3.87245 13.4262 2.70558 12.0091C3.80956 10.6719 7.39002 6.75916 11.5 6.75916C12.6693 6.7828 13.819 7.06453 14.8667 7.58414L13.5647 8.88614C11.8421 7.74247 9.51844 8.2118 8.37478 9.93444C7.54167 11.1893 7.54167 12.8212 8.37478 14.0761L6.76978 15.6811ZM13.525 11.0454C13.6718 11.3455 13.7487 11.675 13.75 12.0091C13.75 13.2518 12.7426 14.2591 11.5 14.2591C11.1659 14.2578 10.8364 14.1809 10.5363 14.0341L13.525 11.0454ZM9.47503 12.9728C9.32825 12.6727 9.2513 12.3432 9.25003 12.0091C9.25003 10.7665 10.2574 9.7591 11.5 9.7591C11.8341 9.76038 12.1636 9.83732 12.4638 9.9841L9.47503 12.9728ZM11.5 17.259C10.3307 17.2354 9.18108 16.9537 8.1333 16.4341L9.4353 15.1321C11.1579 16.2757 13.4816 15.8064 14.6252 14.0838C15.4583 12.8289 15.4583 11.197 14.6252 9.94213L16.2302 8.33713C17.7581 9.35472 19.1276 10.592 20.2944 12.0091C19.1904 13.3464 15.61 17.259 11.5 17.259Z" fill="#4B84F4"/>
</svg>
