<svg width="16" height="16" viewBox="0 0 16 16" fill="none" xmlns="http://www.w3.org/2000/svg">
<path d="M14.5924 3.64073C14.5916 3.64073 14.5907 3.64062 14.5898 3.64062H10.8711V3.23047C10.8711 2.552 10.3191 2 9.64062 2H6.35938C5.68091 2 5.12891 2.552 5.12891 3.23047V3.64062H1.41016C1.18179 3.64062 1 3.82776 1 4.05078V13.0742C1 13.7527 1.552 14.3047 2.23047 14.3047H13.7695C14.448 14.3047 15 13.7527 15 13.0742V4.05943C15 4.0589 15 4.05836 15 4.05783C14.9843 3.78845 14.8186 3.64223 14.5924 3.64073ZM5.94922 3.23047C5.94922 3.00435 6.13326 2.82031 6.35938 2.82031H9.64062C9.86674 2.82031 10.0508 3.00435 10.0508 3.23047V3.64062H5.94922V3.23047ZM14.0208 4.46094L12.747 8.28201C12.6912 8.44981 12.5348 8.5625 12.358 8.5625H10.0508V8.15234C10.0508 7.9258 9.86717 7.74219 9.64062 7.74219H6.35938C6.13283 7.74219 5.94922 7.9258 5.94922 8.15234V8.5625H3.64198C3.46521 8.5625 3.30884 8.44981 3.25298 8.28201L1.97925 4.46094H14.0208ZM9.23047 8.5625V9.38281H6.76953V8.5625H9.23047ZM14.1797 13.0742C14.1797 13.3003 13.9957 13.4844 13.7695 13.4844H2.23047C2.00435 13.4844 1.82031 13.3003 1.82031 13.0742V6.57826L2.47475 8.54146C2.64244 9.04475 3.11156 9.38281 3.64198 9.38281H5.94922V9.79297C5.94922 10.0195 6.13283 10.2031 6.35938 10.2031H9.64062C9.86717 10.2031 10.0508 10.0195 10.0508 9.79297V9.38281H12.358C12.8884 9.38281 13.3576 9.04475 13.5253 8.54146L14.1797 6.57826V13.0742Z" fill="#2E2E2E" fill-opacity="0.6"/>
</svg>
