<svg width="24" height="24" viewBox="0 0 24 24" fill="none" xmlns="http://www.w3.org/2000/svg">
<path d="M11.5146 19.7913C11.6228 19.9217 11.805 20 12 20C12.195 20 12.3772 19.9217 12.4854 19.7913C13.8659 18.1273 15.8993 16.0723 17.3162 13.9822C18.4492 12.3111 19 10.8858 19 9.625C19 6.52338 15.8598 4 12 4C8.1402 4 5 6.52338 5 9.625C5 10.8858 5.55078 12.3111 6.68377 13.9822C8.09968 16.0707 10.137 18.1307 11.5146 19.7913ZM12 4.9375C15.2165 4.9375 17.8333 7.04031 17.8333 9.625C17.8333 10.7251 17.3291 12.0037 16.2917 13.5337C15.0704 15.3352 13.3274 17.1627 12 18.699C10.6728 17.1629 8.92972 15.3353 7.70826 13.5337C6.67094 12.0037 6.16667 10.7251 6.16667 9.625C6.16667 7.04031 8.7835 4.9375 12 4.9375Z" fill="#4B84F4"/>
<path d="M12 12.4354C13.9299 12.4354 15.5 11.1737 15.5 9.62292C15.5 8.07211 13.9299 6.81042 12 6.81042C10.0701 6.81042 8.5 8.07211 8.5 9.62292C8.5 11.1737 10.0701 12.4354 12 12.4354ZM12 7.74792C13.2866 7.74792 14.3333 8.58905 14.3333 9.62292C14.3333 10.6568 13.2866 11.4979 12 11.4979C10.7134 11.4979 9.66667 10.6568 9.66667 9.62292C9.66667 8.58905 10.7134 7.74792 12 7.74792Z" fill="#4B84F4"/>
</svg>
