<svg width="14" height="14" viewBox="0 0 14 14" fill="none" xmlns="http://www.w3.org/2000/svg">
<g clip-path="url(#clip0_919_772)">
<path d="M7.00013 14C7.83936 14 8.56206 13.4931 8.87916 12.7695H5.12109C5.4382 13.4931 6.16092 14 7.00013 14Z" fill="#4B84F4"/>
<path d="M11.2383 6.77748V5.87891C11.2383 3.96971 9.96926 2.35154 8.2305 1.82301V1.23047C8.2305 0.551988 7.67851 0 7.00003 0C6.32155 0 5.76956 0.551988 5.76956 1.23047V1.82301C4.03077 2.35154 2.76175 3.96968 2.76175 5.87891V6.77748C2.76175 8.45452 2.12251 10.0447 0.961794 11.2552C0.848044 11.3738 0.816079 11.5488 0.880555 11.7C0.945032 11.8511 1.09351 11.9492 1.25784 11.9492H12.7422C12.9066 11.9492 13.055 11.8511 13.1195 11.7C13.184 11.5488 13.152 11.3738 13.0383 11.2552C11.8776 10.0447 11.2383 8.4545 11.2383 6.77748ZM7.41019 1.66053C7.27519 1.64752 7.13839 1.64062 7.00003 1.64062C6.86167 1.64062 6.72487 1.64752 6.58988 1.66053V1.23047C6.58988 1.00431 6.77387 0.820312 7.00003 0.820312C7.22619 0.820312 7.41019 1.00431 7.41019 1.23047V1.66053Z" fill="#4B84F4"/>
<path d="M12.3322 5.87872C12.3322 6.10523 12.5159 6.28887 12.7424 6.28887C12.9689 6.28887 13.1525 6.10523 13.1525 5.87872C13.1525 4.23536 12.5126 2.69035 11.3506 1.52833C11.1904 1.36818 10.9307 1.36815 10.7705 1.52833C10.6103 1.68851 10.6103 1.94819 10.7705 2.10837C11.7776 3.11547 12.3322 4.45446 12.3322 5.87872Z" fill="#4B84F4"/>
<path d="M1.25781 6.28886C1.48433 6.28886 1.66797 6.10522 1.66797 5.8787C1.66797 4.45447 2.22261 3.11548 3.22968 2.10838C3.38986 1.9482 3.38986 1.68852 3.22968 1.52834C3.06953 1.36816 2.80982 1.36816 2.64964 1.52834C1.48761 2.69037 0.847656 4.23534 0.847656 5.8787C0.847656 6.10522 1.0313 6.28886 1.25781 6.28886Z" fill="#4B84F4"/>
</g>
<defs>
<clipPath id="clip0_919_772">
<rect width="14" height="14" fill="white"/>
</clipPath>
</defs>
</svg>
