<svg width="16" height="16" viewBox="0 0 16 16" fill="none" xmlns="http://www.w3.org/2000/svg">
<path d="M13.2805 7.28035L8.61371 7.29446V2.71952C8.61371 2.3209 8.29281 2 7.89419 2C7.49569 2 7.17466 2.3209 7.17466 2.71952L7.18877 7.28048H2.71952C2.3209 7.28048 2 7.60138 2 8C2 8.3985 2.3209 8.71939 2.71952 8.71939H7.18172V13.2805C7.18172 13.6788 7.50262 14 7.90124 14C8.29987 14 8.62076 13.6788 8.62076 13.2805V8.71952H13.2805C13.6791 8.71952 14 8.39837 14 8C14 7.60125 13.6755 7.28035 13.2805 7.28035Z" fill="#4B84F4"/>
</svg>
