<svg width="16" height="16" viewBox="0 0 16 16" fill="none" xmlns="http://www.w3.org/2000/svg">
<path d="M8.00001 8.75897C4.13086 8.75897 2 10.4647 2 13.562C2 13.8039 2.21039 14 2.46997 14H13.53C13.7896 14 14 13.8039 14 13.562C14 10.4649 11.8692 8.75897 8.00001 8.75897ZM2.95704 13.124C3.1419 10.8082 4.83615 9.63492 8.00001 9.63492C11.1639 9.63492 12.8581 10.8082 13.0432 13.124H2.95704Z" fill="#2E2E2E" fill-opacity="0.6"/>
<path d="M7.99984 2C6.22255 2 4.88235 3.27404 4.88235 4.96342C4.88235 6.70228 6.28085 8.11676 7.99984 8.11676C9.71884 8.11676 11.1173 6.70228 11.1173 4.96356C11.1173 3.27404 9.77714 2 7.99984 2ZM7.99984 7.24098C6.79906 7.24098 5.8223 6.21935 5.8223 4.96356C5.8223 3.75391 6.73812 2.87592 7.99984 2.87592C9.24137 2.87592 10.1774 3.77331 10.1774 4.96356C10.1774 6.21935 9.20062 7.24098 7.99984 7.24098Z" fill="#2E2E2E" fill-opacity="0.6"/>
</svg>
