<svg width="16" height="16" viewBox="0 0 16 16" fill="none" xmlns="http://www.w3.org/2000/svg">
<path d="M1.81314 8.00079C1.35314 8.00079 0.997073 7.59796 1.05259 7.14125C1.24047 5.59664 1.93374 4.16798 3.05118 3.05055C4.37345 1.72828 6.13165 1 8.00142 1C10.1507 1 12.1526 1.98234 13.468 3.62622V2.42565C13.468 2.00832 13.7951 1.6558 14.2121 1.64432C14.6448 1.63256 14.9995 1.9796 14.9995 2.40979V5.21568C14.9995 5.78178 14.5406 6.24068 13.9745 6.24068H11.1984C10.7811 6.24068 10.4285 5.9136 10.4171 5.49655C10.4053 5.0639 10.7523 4.7092 11.1825 4.7092H12.3703C11.3453 3.34919 9.73473 2.53148 8.0017 2.53148C5.21248 2.53148 2.90432 4.63016 2.57313 7.33159C2.5261 7.71446 2.19901 8.00079 1.81341 8.00079H1.81314Z" fill="#4B84F4"/>
<path d="M14.1863 7.99927C13.8007 7.99927 13.4734 8.2856 13.4266 8.66847C13.0957 11.3696 10.7873 13.4686 7.99806 13.4686C6.26502 13.4686 4.6545 12.6509 3.6295 11.2909H4.80136C5.21869 11.2909 5.57121 10.9638 5.58269 10.5467C5.59445 10.1141 5.24741 9.75938 4.81722 9.75938H2.025C1.4589 9.75938 1 10.2183 1 10.7844V13.5744C1 13.9917 1.32708 14.3443 1.74414 14.3557C2.16119 14.3672 2.53148 14.0205 2.53148 13.5903V12.3738C3.84719 14.0177 5.84879 15.0001 7.99806 15.0001C9.86811 15.0001 11.626 14.2718 12.9483 12.9495C14.0657 11.8321 14.759 10.4031 14.9469 8.85881C15.0024 8.4021 14.6463 7.99927 14.1863 7.99927Z" fill="#4B84F4"/>
</svg>
